<svg width="18" height="18" viewBox="0 0 18 18" fill="none" xmlns="http://www.w3.org/2000/svg">
<path fill-rule="evenodd" clip-rule="evenodd" d="M17.1461 8.46603C17.0263 8.58445 16.8641 8.64999 16.6957 8.64803V8.63338C16.3435 8.63338 16.058 8.34789 16.058 7.99573V5.87759C16.058 3.33434 14.6655 1.94179 12.1296 1.94179H5.87774C3.34183 1.94179 1.94194 3.34167 1.94194 5.87759V12.1294C1.94194 14.658 3.34183 16.0579 5.87774 16.0579H12.1296C14.6655 16.0579 16.058 14.658 16.058 12.1294C16.058 11.7773 16.3435 11.4918 16.6957 11.4918C17.0478 11.4918 17.3333 11.7773 17.3333 12.1294C17.3333 15.3396 15.3398 17.3332 12.1296 17.3332H5.87774C2.66021 17.3332 0.666656 15.3396 0.666656 12.1294V5.87759C0.666656 2.66005 2.66021 0.666504 5.87774 0.666504H12.1296C15.3251 0.666504 17.3333 2.66005 17.3333 5.87759V8.01772C17.3333 8.18617 17.2659 8.34761 17.1461 8.46603ZM9.02931 5.54044C9.09791 5.54042 9.16535 5.55159 9.22918 5.57291C9.49478 5.64992 9.68894 5.89499 9.68894 6.18541V8.17896H11.8584C11.9336 8.17808 12.0076 8.19066 12.0771 8.21539C12.1741 8.24594 12.2632 8.29981 12.336 8.37349C12.4544 8.49329 12.52 8.6555 12.518 8.82393C12.5181 9.17045 12.2415 9.45361 11.895 9.46158H11.8511H6.21488C6.16066 9.46034 6.10812 9.45245 6.05805 9.43867C5.77213 9.37437 5.55863 9.12057 5.55525 8.81661C5.55329 8.64817 5.61884 8.48596 5.73726 8.36616C5.85567 8.24637 6.01712 8.17895 6.18557 8.17896H8.38433V6.17808C8.39222 5.82639 8.67755 5.5443 9.02931 5.54044ZM8.39899 11.7923V11.0594V10.9861C8.40473 10.8169 8.47747 10.657 8.60119 10.5415C8.72492 10.426 8.88948 10.3645 9.05862 10.3704C9.22844 10.3742 9.38955 10.4463 9.50545 10.5705C9.62135 10.6947 9.68222 10.8604 9.67428 11.03V11.8362C9.66855 12.0054 9.59581 12.1653 9.47208 12.2808C9.34835 12.3963 9.18379 12.4578 9.01465 12.4519C8.66419 12.4361 8.39066 12.143 8.39899 11.7923Z" fill="#F8809F"/>
</svg>
